<svg xmlns="http://www.w3.org/2000/svg" width="90" height="19" viewBox="0 0 90 19">
    <defs>
        <linearGradient id="a" x1="41.85%" x2="106.867%" y1="42.034%" y2="105.758%">
            <stop offset="0%" stop-color="#ED273E"/>
            <stop offset="12.36%" stop-color="#E4253A"/>
            <stop offset="32.6%" stop-color="#CB1E30"/>
            <stop offset="58.19%" stop-color="#A31420"/>
            <stop offset="87.85%" stop-color="#6D060A"/>
            <stop offset="100%" stop-color="#540000"/>
        </linearGradient>
        <linearGradient id="b" x1="18.189%" x2="104.488%" y1="19.202%" y2="103.09%">
            <stop offset="0%" stop-color="#ED273E"/>
            <stop offset="12.36%" stop-color="#E4253A"/>
            <stop offset="32.6%" stop-color="#CB1E30"/>
            <stop offset="58.19%" stop-color="#A31420"/>
            <stop offset="87.85%" stop-color="#6D060A"/>
            <stop offset="100%" stop-color="#540000"/>
        </linearGradient>
        <linearGradient id="c" x1="-97.578%" x2="146.9%" y1="-43.886%" y2="112.114%">
            <stop offset="0%" stop-color="#ED273E"/>
            <stop offset="12.36%" stop-color="#E4253A"/>
            <stop offset="32.6%" stop-color="#CB1E30"/>
            <stop offset="58.19%" stop-color="#A31420"/>
            <stop offset="87.85%" stop-color="#6D060A"/>
            <stop offset="100%" stop-color="#540000"/>
        </linearGradient>
    </defs>
    <g fill="none" fill-rule="nonzero">
        <path fill="#7A0014" d="M80.495 16.512c.964-.271 1.561-1.309 1.24-2.301L78.612 3.203c-.275-.947-1.331-1.534-2.342-1.218-.964.27-1.56 1.308-1.24 2.3l3.123 11.009c.321.947 1.378 1.533 2.342 1.218zM87.429 14.391c.918-.496 1.24-1.579.734-2.481L84.26 4.827c-.505-.902-1.607-1.218-2.525-.722-.919.497-1.24 1.58-.735 2.482l3.903 7.082c.46.903 1.607 1.219 2.526.722z"/>
        <path fill="#231F20" d="M86.143 8.256c-.046 0-.092.045-.138.09l-2.02 3.384a.472.472 0 0 0-.092.225l.78 1.444c.138.225.276.406.46.541.091.045.183.09.321.136a1.907 1.907 0 0 0 2.204-1.444l.23-1.128-1.745-3.248zM79.76 7.083c0 .045-.046.045-.046.09l-2.204 5.369c-.046.045-.046.135-.046.18l.69 2.436c.09.226.229.451.366.587.092.045.184.135.276.18.964.361 1.47-2.842 1.837-3.744l.275-.948-1.148-4.15z" opacity=".2"/>
        <path fill="url(#a)" d="M1.561 16.827a1.82 1.82 0 0 1-1.285-2.255L4.82 1.444C5.097.45 6.153-.09 7.117.18a1.82 1.82 0 0 1 1.286 2.256L3.857 15.564c-.275.993-1.286 1.534-2.296 1.263z" transform="translate(70.255 1.805)"/>
        <path fill="url(#b)" d="M9.413 14.752c-1.01-.18-1.699-1.173-1.47-2.165l2.572-9.068c.184-.993 1.194-1.624 2.204-1.444 1.01.18 1.7 1.173 1.47 2.166l-2.572 9.068c-.23.992-1.194 1.669-2.204 1.443z" transform="translate(70.255 1.805)"/>
        <path fill="url(#c)" d="M15.52 12.677c-.918-.406-1.331-1.489-.918-2.436l1.47-3.203c.413-.903 1.515-1.309 2.479-.903.918.407 1.332 1.49.918 2.437L18 11.775c-.46.902-1.561 1.308-2.48.902z" transform="translate(70.255 1.805)"/>
        <path fill="#FFF" d="M30.811 1.489H33.2v3.293h5.051v1.85h-5.051v6.902c0 .587.275.902.827.902h.872v2.256h-1.24c-.826 0-1.515-.27-2.066-.767-.551-.496-.827-1.218-.827-2.165V6.632h-2.112v-1.85h2.112l.046-3.293z"/>
        <path fill="#FFF" d="M36.413 4.782h2.388v7.083c0 .812.23 1.444.689 1.895.459.45 1.01.676 1.699.676.689 0 1.24-.225 1.653-.676.459-.451.643-1.083.643-1.895V4.782h2.387v11.865h-2.387v-1.263h-.046c-.78.947-1.791 1.398-3.077 1.398-.964 0-1.882-.36-2.663-1.082-.872-.677-1.286-1.715-1.286-3.023V4.782zM68.097 11.64V9.653c0-1.579-.505-2.797-1.424-3.699-.918-.857-2.066-1.308-3.443-1.353-.551 0-1.148.09-1.7.315a4.996 4.996 0 0 0-1.607.993c-.459.451-.826 1.083-1.147 1.895-.276.767-.46 1.76-.46 2.932 0 1.218.184 2.21.505 2.978.322.812.735 1.398 1.24 1.85.276.225.551.405.827.54.275.181.55.316.872.407.597.18 1.194.27 1.837.27 1.653 0 3.03-.631 4.27-1.94l-1.699-1.488c-.78.767-1.607 1.173-2.571 1.173-.827 0-1.515-.271-2.02-.767-.551-.497-.827-1.218-.827-2.166V9.61c.046-.902.276-1.624.735-2.075.459-.451 1.056-.677 1.745-.677.734 0 1.285.226 1.744.677.46.496.69 1.173.735 2.12h-3.214v1.985h5.602zM28.378 11.64V9.653c0-1.579-.506-2.797-1.424-3.699-.918-.857-2.066-1.308-3.444-1.353-.55 0-1.148.09-1.699.315a4.996 4.996 0 0 0-1.607.993c-.46.451-.826 1.083-1.148 1.895-.275.767-.46 1.76-.46 2.932 0 1.218.185 2.21.506 2.978.321.812.735 1.398 1.24 1.85.275.225.55.405.826.54.276.181.551.316.873.407.597.18 1.194.27 1.837.27 1.653 0 3.03-.631 4.27-1.94l-1.699-1.488c-.78.767-1.607 1.173-2.571 1.173-.827 0-1.516-.271-2.02-.767-.552-.497-.827-1.218-.827-2.166V9.61c.046-.902.275-1.624.734-2.075.46-.451 1.056-.677 1.745-.677.735 0 1.286.226 1.745.677.46.496.689 1.173.735 2.12H15.98v1.985h12.398zM56.71 7.714c-.139-.631-.368-1.082-.69-1.488-.688-.993-1.744-1.534-3.168-1.58h-.092c-1.515 0-2.48.632-2.939 1.038V0h-2.387v16.692h2.387V15.7c.322.27.919.676 1.837.902.368.135.78.18 1.194.225.735 0 1.378-.18 1.883-.45.55-.271.964-.632 1.285-1.083.322-.361.551-.903.69-1.534.091-.632.183-1.624.183-3.023-.046-1.444-.092-2.436-.184-3.023zm-2.25 4.331c-.047.452-.139.858-.322 1.218a1.81 1.81 0 0 1-.689.858c-.321.225-.78.315-1.332.315-.55 0-.964-.135-1.285-.36a2.24 2.24 0 0 1-.735-.858A4.761 4.761 0 0 1 49.82 12c-.045-.45-.045-.857-.045-1.308 0-.451.045-.902.045-1.308a4.87 4.87 0 0 1 .276-1.173c.138-.361.367-.632.735-.857.321-.226.734-.316 1.285-.316.551 0 1.01.09 1.332.27.321.226.551.497.689.858.138.36.275.767.321 1.173 0 .45.046.902.046 1.398 0 .451 0 .902-.046 1.308z"/>
        <path fill="#FFF" d="M16.026 5.684c-.827-.676-1.745-1.037-2.756-1.037-1.607 0-3.168.496-4.132 1.534-.414-.452-.873-.858-1.378-1.128-.505-.27-1.194-.406-2.066-.406-.367 0-.78.045-1.102.135-1.515.316-2.618 1.083-3.26 1.805C.367 7.76.322 9.023.322 9.023v7.67h2.387V9.608c.046-.857.276-1.489.735-1.94.46-.45 1.056-.676 1.745-.676.734 0 1.285.225 1.79.676.46.451.69 1.083.69 1.895v7.083h2.387V9.564c0-.812.23-1.444.689-1.895.46-.45 1.056-.676 1.79-.676.735 0 1.286.225 1.746.676.459.451.688 1.083.688 1.895v7.083h2.388V8.752c-.046-1.353-.505-2.391-1.331-3.068z"/>
    </g>
</svg>