<?xml version="1.0" encoding="UTF-8" standalone="no"?>
<svg xmlns:dc="http://purl.org/dc/elements/1.1/" xmlns:cc="http://creativecommons.org/ns#" xmlns:rdf="http://www.w3.org/1999/02/22-rdf-syntax-ns#" xmlns:svg="http://www.w3.org/2000/svg" xmlns="http://www.w3.org/2000/svg" xmlns:xlink="http://www.w3.org/1999/xlink" xmlns:sodipodi="http://sodipodi.sourceforge.net/DTD/sodipodi-0.dtd" xmlns:inkscape="http://www.inkscape.org/namespaces/inkscape" width="631.137pt" version="1.1" height="279.588pt" viewBox="0 0 631.137 279.588" id="svg3032" inkscape:version="0.48.4 r9939" sodipodi:docname="tv2 NEW-page001.svg">
  <metadata id="metadata3077">
    <rdf:RDF>
      <cc:Work rdf:about="">
        <dc:format>image/svg+xml</dc:format>
        <dc:type rdf:resource="http://purl.org/dc/dcmitype/StillImage"/>
        <dc:title>TV2 Logo</dc:title>
      </cc:Work>
    </rdf:RDF>
  </metadata>
  <sodipodi:namedview pagecolor="#ffffff" bordercolor="#666666" borderopacity="1" objecttolerance="10" gridtolerance="10" guidetolerance="10" inkscape:pageopacity="0" inkscape:pageshadow="2" inkscape:window-width="1024" inkscape:window-height="538" id="namedview3075" showgrid="false" inkscape:zoom="0.38406874" inkscape:cx="394.46063" inkscape:cy="174.74251" inkscape:window-x="-8" inkscape:window-y="-8" inkscape:window-maximized="1" inkscape:current-layer="svg3032"/>
  <title id="title3034">TV2 Logo</title>
  <defs id="defs3036">
    <clipPath id="Clip0">
      <path d="M0 0 L642.726 0 L642.726 288.597 L0 288.597 L0 0 Z" transform="translate(0, -9.0093)" id="path3039"/>
    </clipPath>
    <clipPath id="Clip1">
      <path d="M0 0 L227.499 0 L227.499 288.597 L0 288.597 L0 0 Z" transform="translate(404.608, -9.0093)" id="path3042"/>
    </clipPath>
    <linearGradient id="Grad0" y1="40.917" x1="524.236" y2="0" gradientUnits="userSpaceOnUse" x2="120.71">
      <stop offset="0" stop-color="#ec6508" stop-opacity="1" id="stop3045" style="stop-color:#e48d10;stop-opacity:0.95495498;"/>
      <stop style="stop-color:#d07210;stop-opacity:0.96470588;" id="stop5299" stop-opacity="1" stop-color="#ec6508" offset="0.25"/>
      <stop style="stop-color:#bc5811;stop-opacity:0.97647059;" id="stop5297" stop-opacity="1" stop-color="#ec6508" offset="0.5"/>
      <stop offset="100%" stop-color="#952313" stop-opacity="1" id="stop3047"/>
    </linearGradient>
    <linearGradient id="Grad1" y1="104.268" x1="14.6622" y2="-34.364" gradientUnits="userSpaceOnUse" x2="9.95266">
      <stop offset="0%" stop-color="#ec6508" stop-opacity="1" id="stop3050"/>
      <stop offset="100%" stop-color="#952313" stop-opacity="1" id="stop3052"/>
    </linearGradient>
    <radialGradient inkscape:collect="always" xlink:href="#Grad0" id="radialGradient5303" cx="66.047256" cy="77.8162" fx="66.047256" fy="77.8162" r="60.355251" gradientTransform="matrix(1,0,0,1.2580314,0,-20.079019)" gradientUnits="userSpaceOnUse"/>
  </defs>
  <g id="Layer 3">
    <g id="Group2" clip-path="url(#Clip0)">
      <path style="fill:#eb6606; fill-rule:nonzero;stroke:none;" d="M0 184.133 L185.849 184.133 L225.877 0 L40.0289 0 L0 184.133 Z" transform="translate(0, 95.4546)" id="path3056"/>
      <path style="fill:#f28f03; fill-rule:nonzero;stroke:none;" d="M0 184.133 L185.848 184.133 L225.877 0 L40.0283 0 L0 184.133 Z" transform="translate(200.358, 95.4546)" id="path3058"/>
      <path style="fill:#f3b100; fill-rule:nonzero;stroke:none;" d="M0 184.133 L185.85 184.133 L225.879 0 L40.0303 0 L0 184.133 Z" transform="translate(400.713, 95.4546)" id="path3060"/>
      <path style="fill:#616362; fill-rule:nonzero;stroke:none;" d="M182.22 18.9541 C148.24 0 104.018 9.5078 70.1357 35.897 C70.1221 35.8994 70.1064 35.9024 70.0908 35.9048 C45.2285 55.2788 25.9473 83.7491 20.3926 116.762 C13.9365 155.14 50.4766 185.671 50.4766 185.671 L99.3809 122.541 C99.3809 122.541 88.2676 109.649 101.308 96.6079 C113.485 84.4297 142.452 88.5396 135.372 105.308 L135.383 105.279 C134.881 106.476 134.207 107.732 133.317 109.056 C133.255 109.149 133.177 109.265 133.107 109.365 C133.109 109.362 133.111 109.36 133.112 109.358 C132.84 109.76 132.527 110.214 132.181 110.715 L132.182 110.713 C114.374 136.375 0 288.597 0 288.597 L176.59 288.597 L193.778 209.531 L148.432 209.531 C148.432 209.531 188.146 155.293 203.56 133.359 C218.972 111.427 227.499 44.211 182.22 18.9541 Z" transform="translate(415.227, -9.0093)" id="path3062"/>
      <g id="Group1" clip-path="url(#Clip1)">
        <path style="fill:url(#radialGradient5303);fill-rule:nonzero;stroke:none;fill-opacity:1" d="M114.714 17.8071 C102.476 0.2554 77.6172 0 56.1543 3.9785 C31.293 23.3525 12.0107 51.8228 6.457 84.8354 C0 123.213 36.541 153.745 36.541 153.745 L85.4443 90.6147 C85.4443 90.6147 74.332 77.7231 87.3721 64.6816 C99.5498 52.5034 128.517 56.6133 121.436 73.3813 C126.06 63.9443 132.294 43.02 114.714 17.8071 Z M118.251 78.7812 C118.251 78.7812 118.614 78.3091 119.177 77.4312 C118.904 77.8335 118.592 78.2881 118.244 78.7886 L118.251 78.7812 Z" transform="translate(418.543, 22.917)" id="path3065"/>
        <path style="fill:url(#Grad1); fill-rule:nonzero;stroke:none;" d="M39.3437 0 C39.3437 0 35.6396 4.5937 23.6357 20.5986 C11.6318 36.6035 0 79.0664 67.5009 79.0664 L84.6904 0 L39.3437 0 Z" transform="translate(513.696, 200.521)" id="path3067"/>
        <path style="fill:#ec6508; fill-rule:nonzero;stroke:none;" d="M69.4677 36.4112 C69.6884 36.2364 69.913 36.0689 70.1347 35.897 C70.1191 35.8994 70.1054 35.9024 70.0898 35.9048 C69.8798 36.0689 69.6787 36.2451 69.4677 36.4112 Z M148.432 209.531 C148.432 209.531 188.146 155.293 203.559 133.359 C218.972 111.427 227.499 44.211 182.22 18.9541 C148.24 0 104.017 9.5078 70.1347 35.897 C91.5879 31.9273 116.42 32.1934 128.649 49.7334 C146.229 74.9463 139.995 95.8706 135.372 105.308 L135.382 105.279 C134.88 106.476 134.206 107.732 133.317 109.056 C133.253 109.15 133.173 109.269 133.103 109.371 C132.546 110.239 132.186 110.708 132.186 110.708 L132.182 110.713 C114.374 136.375 0 288.597 0 288.597 L176.589 288.597 C109.088 288.597 120.72 246.134 132.724 230.129 C144.727 214.125 148.432 209.531 148.432 209.531 Z" transform="translate(404.608, -9.0093)" id="path3069"/>
      </g>
      <path style="fill:#ffffff; fill-rule:nonzero;stroke:none;" d="M47.022 0 L40.6396 27.6245 L68.2637 27.6245 L64.5278 43.1031 L36.9043 43.1031 L24.1011 99.3028 C22.4057 105.731 21.207 111.686 20.9604 117.639 C20.6743 124.545 23.8315 128.832 31.4521 128.832 C35.0234 128.832 38.1294 128.592 40.7778 127.879 L39.186 143.358 C35.5547 144.787 29.5723 145.5 23.8569 145.5 C6.4722 145.5 0 135.023 0.4922 123.117 C0.7685 116.447 1.9971 109.781 4.0088 101.445 L17.6147 43.1031 L1.1836 43.1031 L4.6811 27.6245 L21.1133 27.6245 L26.0381 6.4297 L47.022 0 Z" transform="translate(84.0611, 116.953)" id="path3071"/>
      <path style="fill:#ffffff; fill-rule:nonzero;stroke:none;" d="M20.0034 0 L27.2862 65.7251 C28.4102 78.8228 29.7031 87.8716 29.6846 94.063 L30.3994 94.063 C33.2754 87.8716 36.6865 80.2525 43.8955 67.1539 L81.6817 0 L103.351 0 L34.5235 115.256 L15.2344 115.256 L0 0 L20.0034 0 Z" transform="translate(276.068, 144.578)" id="path3073"/>
    </g>
  </g>
</svg>